<?xml version="1.0" encoding="UTF-8"?>
<svg id="Layer_2" data-name="Layer 2" xmlns="http://www.w3.org/2000/svg" xmlns:xlink="http://www.w3.org/1999/xlink" viewBox="0 0 196.85 197.05">
  <defs>
    <style>
      .cls-1 {
        stroke: url(#linear-gradient);
      }

      .cls-1, .cls-2, .cls-3, .cls-4, .cls-5, .cls-6, .cls-7, .cls-8, .cls-9, .cls-10, .cls-11 {
        stroke-linecap: round;
        stroke-linejoin: round;
      }

      .cls-1, .cls-2, .cls-3, .cls-4, .cls-5, .cls-6, .cls-8, .cls-9, .cls-10, .cls-11 {
        fill: none;
      }

      .cls-1, .cls-2, .cls-3, .cls-4, .cls-5, .cls-6, .cls-9, .cls-10 {
        stroke-width: 4.65px;
      }

      .cls-2 {
        stroke: url(#linear-gradient-14);
      }

      .cls-3 {
        stroke: url(#linear-gradient-16);
      }

      .cls-4 {
        stroke: url(#linear-gradient-13);
      }

      .cls-5 {
        stroke: url(#linear-gradient-4);
      }

      .cls-6 {
        stroke: url(#linear-gradient-2);
      }

      .cls-7 {
        fill: #fff;
      }

      .cls-7, .cls-8 {
        stroke-width: 4.14px;
      }

      .cls-7, .cls-11 {
        stroke: #fff;
      }

      .cls-12 {
        fill: url(#linear-gradient-8);
      }

      .cls-13 {
        fill: url(#linear-gradient-9);
      }

      .cls-14 {
        fill: url(#linear-gradient-6);
      }

      .cls-15 {
        fill: url(#linear-gradient-7);
      }

      .cls-16 {
        fill: url(#linear-gradient-5);
      }

      .cls-8 {
        stroke: #000;
      }

      .cls-9 {
        stroke: url(#linear-gradient-15);
      }

      .cls-9, .cls-10 {
        stroke-dasharray: 0 0 11.8 11.8;
      }

      .cls-17 {
        opacity: .47;
      }

      .cls-10 {
        stroke: url(#linear-gradient-3);
      }

      .cls-11 {
        stroke-width: 14.92px;
      }

      .cls-18 {
        fill: url(#linear-gradient-18);
      }

      .cls-19 {
        fill: url(#linear-gradient-22);
      }

      .cls-20 {
        fill: url(#linear-gradient-20);
      }

      .cls-21 {
        fill: url(#linear-gradient-21);
      }

      .cls-22 {
        fill: url(#linear-gradient-23);
      }

      .cls-23 {
        fill: url(#linear-gradient-19);
      }

      .cls-24 {
        fill: url(#linear-gradient-17);
      }

      .cls-25 {
        fill: url(#linear-gradient-12);
      }

      .cls-26 {
        fill: url(#linear-gradient-10);
      }

      .cls-27 {
        fill: url(#linear-gradient-11);
      }

      .cls-28 {
        fill: url(#linear-gradient-24);
      }
    </style>
    <linearGradient id="linear-gradient" x1="61.59" y1="143.13" x2="129.15" y2="75.58" gradientTransform="translate(-15.46 -45.06)" gradientUnits="userSpaceOnUse">
      <stop offset="0" stop-color="#57ba62"/>
      <stop offset=".51" stop-color="#f1e31b"/>
      <stop offset="1" stop-color="#f1bac4"/>
    </linearGradient>
    <linearGradient id="linear-gradient-2" x1="143.16" y1="101.37" x2="35.9" y2="6.89" gradientTransform="matrix(1, 0, 0, 1, 0, 0)" xlink:href="#linear-gradient"/>
    <linearGradient id="linear-gradient-3" x1="132.91" y1="113.01" x2="25.64" y2="18.53" gradientTransform="matrix(1, 0, 0, 1, 0, 0)" xlink:href="#linear-gradient"/>
    <linearGradient id="linear-gradient-4" x1="123.51" y1="123.68" x2="16.25" y2="29.2" gradientTransform="matrix(1, 0, 0, 1, 0, 0)" xlink:href="#linear-gradient"/>
    <linearGradient id="linear-gradient-5" x1="142.03" y1="102.65" x2="34.77" y2="8.17" gradientTransform="matrix(1, 0, 0, 1, 0, 0)" xlink:href="#linear-gradient"/>
    <linearGradient id="linear-gradient-6" x1="124.64" y1="122.4" x2="17.38" y2="27.92" gradientTransform="matrix(1, 0, 0, 1, 0, 0)" xlink:href="#linear-gradient"/>
    <linearGradient id="linear-gradient-7" x1="75.93" y1="49.06" x2="85.24" y2="36.14" gradientTransform="translate(-31.43 150.9) rotate(-84.42)" xlink:href="#linear-gradient"/>
    <linearGradient id="linear-gradient-8" x1="61.01" y1="61.99" x2="70.32" y2="49.08" gradientTransform="translate(-31.43 150.9) rotate(-84.42)" xlink:href="#linear-gradient"/>
    <linearGradient id="linear-gradient-9" x1="51.06" y1="77.91" x2="60.37" y2="64.99" gradientTransform="translate(-31.43 150.9) rotate(-84.42)" xlink:href="#linear-gradient"/>
    <linearGradient id="linear-gradient-10" x1="45.09" y1="96.81" x2="54.4" y2="83.9" gradientTransform="translate(-31.43 150.9) rotate(-84.42)" xlink:href="#linear-gradient"/>
    <linearGradient id="linear-gradient-11" x1="43.1" y1="115.71" x2="52.41" y2="102.8" gradientTransform="translate(-31.43 150.9) rotate(-84.42)" xlink:href="#linear-gradient"/>
    <linearGradient id="linear-gradient-12" x1="45.09" y1="135.61" x2="54.4" y2="122.69" gradientTransform="translate(-31.43 150.9) rotate(-84.42)" xlink:href="#linear-gradient"/>
    <linearGradient id="linear-gradient-13" x1="93.82" y1="143.08" x2="161.37" y2="75.52" gradientTransform="translate(237.94 -19.01) rotate(90)" xlink:href="#linear-gradient"/>
    <linearGradient id="linear-gradient-14" x1="97.88" y1="175.14" x2="181.49" y2="59.2" gradientTransform="matrix(1, 0, 0, 1, 0, 0)" xlink:href="#linear-gradient"/>
    <linearGradient id="linear-gradient-15" x1="85.3" y1="166.06" x2="168.91" y2="50.12" gradientTransform="matrix(1, 0, 0, 1, 0, 0)" xlink:href="#linear-gradient"/>
    <linearGradient id="linear-gradient-16" x1="73.77" y1="157.75" x2="157.37" y2="41.81" gradientTransform="matrix(1, 0, 0, 1, 0, 0)" xlink:href="#linear-gradient"/>
    <linearGradient id="linear-gradient-17" x1="96.5" y1="174.14" x2="180.11" y2="58.2" gradientTransform="matrix(1, 0, 0, 1, 0, 0)" xlink:href="#linear-gradient"/>
    <linearGradient id="linear-gradient-18" x1="75.15" y1="158.75" x2="158.76" y2="42.81" gradientTransform="matrix(1, 0, 0, 1, 0, 0)" xlink:href="#linear-gradient"/>
    <linearGradient id="linear-gradient-19" x1="107.55" y1="55.24" x2="116.86" y2="42.33" gradientTransform="matrix(1, 0, 0, 1, 0, 0)" xlink:href="#linear-gradient"/>
    <linearGradient id="linear-gradient-20" x1="92.63" y1="68.17" x2="101.94" y2="55.26" gradientTransform="matrix(1, 0, 0, 1, 0, 0)" xlink:href="#linear-gradient"/>
    <linearGradient id="linear-gradient-21" x1="82.68" y1="84.09" x2="91.99" y2="71.18" gradientTransform="matrix(1, 0, 0, 1, 0, 0)" xlink:href="#linear-gradient"/>
    <linearGradient id="linear-gradient-22" x1="76.71" y1="102.99" x2="86.02" y2="90.08" gradientTransform="matrix(1, 0, 0, 1, 0, 0)" xlink:href="#linear-gradient"/>
    <linearGradient id="linear-gradient-23" x1="74.72" y1="121.89" x2="84.03" y2="108.98" gradientTransform="matrix(1, 0, 0, 1, 0, 0)" xlink:href="#linear-gradient"/>
    <linearGradient id="linear-gradient-24" x1="76.71" y1="141.79" x2="86.02" y2="128.88" gradientTransform="matrix(1, 0, 0, 1, 0, 0)" xlink:href="#linear-gradient"/>
  </defs>
  <g id="Layer_1-2" data-name="Layer 1">
    <g>
      <rect class="cls-8" x="6.23" y="5.21" width="120.18" height="156.65" transform="translate(-4.43 3.72) rotate(-3.11)"/>
      <ellipse class="cls-1" cx="79.91" cy="64.3" rx="36.93" ry="52.59" transform="translate(-4.68 122.3) rotate(-73.26)"/>
      <line class="cls-11" x1="135.61" y1="95.8" x2="23.8" y2="34.77"/>
      <g>
        <line class="cls-6" x1="141.85" y1="99.34" x2="136.62" y2="96.48"/>
        <line class="cls-10" x1="126.27" y1="90.81" x2="27.97" y2="36.94"/>
        <line class="cls-5" x1="22.79" y1="34.1" x2="17.56" y2="31.23"/>
        <polygon class="cls-16" points="138.79 82.49 135.7 83.52 140.76 98.74 125.2 102.67 126 105.83 144.95 101.04 138.79 82.49"/>
        <polygon class="cls-14" points="33.41 24.74 34.21 27.9 18.65 31.83 23.71 47.05 20.62 48.08 14.47 29.53 33.41 24.74"/>
      </g>
      <circle class="cls-17" cx="20.68" cy="76.02" r="7.96"/>
      <circle class="cls-17" cx="32.1" cy="92.13" r="7.96"/>
      <circle class="cls-17" cx="46.98" cy="103.57" r="7.96"/>
      <circle class="cls-17" cx="65.21" cy="111.35" r="7.96"/>
      <circle class="cls-17" cx="83.83" cy="115.17" r="7.96"/>
      <circle class="cls-17" cx="103.82" cy="115.12" r="7.96"/>
      <circle class="cls-15" cx="18.8" cy="74.83" r="7.96"/>
      <circle class="cls-12" cx="30.22" cy="90.94" r="7.96"/>
      <circle class="cls-13" cx="45.09" cy="102.39" r="7.96"/>
      <circle class="cls-26" cx="63.33" cy="110.17" r="7.96"/>
      <circle class="cls-27" cx="81.95" cy="113.99" r="7.96"/>
      <circle class="cls-25" cx="101.94" cy="113.94" r="7.96"/>
      <rect class="cls-7" x="58.8" y="25.6" width="120.18" height="156.65" transform="translate(20.68 -19.73) rotate(10.38)"/>
      <rect class="cls-8" x="61.46" y="28.78" width="120.18" height="156.65" transform="translate(21.3 -20.16) rotate(10.38)"/>
      <ellipse class="cls-4" cx="128.64" cy="108.58" rx="52.59" ry="36.93" transform="translate(-2.8 213.76) rotate(-78.84)"/>
      <line class="cls-11" x1="102.69" y1="167.07" x2="152.56" y2="49.87"/>
      <g>
        <line class="cls-2" x1="99.77" y1="173.63" x2="102.12" y2="168.15"/>
        <line class="cls-9" x1="106.76" y1="157.3" x2="150.82" y2="54.22"/>
        <line class="cls-3" x1="153.14" y1="48.8" x2="155.48" y2="43.31"/>
        <polygon class="cls-24" points="116.25 168.95 114.93 165.97 100.27 172.49 94.84 157.39 91.78 158.49 98.39 176.88 116.25 168.95"/>
        <polygon class="cls-18" points="163.48 58.45 160.42 59.56 155 44.46 140.33 50.97 139.01 47.99 156.87 40.07 163.48 58.45"/>
      </g>
      <circle class="cls-17" cx="111.21" cy="50.77" r="7.96"/>
      <circle class="cls-17" cx="96.29" cy="63.7" r="7.96"/>
      <circle class="cls-17" cx="86.34" cy="79.62" r="7.96"/>
      <circle class="cls-17" cx="80.37" cy="98.52" r="7.96"/>
      <circle class="cls-17" cx="78.38" cy="117.43" r="7.96"/>
      <circle class="cls-17" cx="80.37" cy="137.32" r="7.96"/>
      <circle class="cls-23" cx="112.21" cy="48.78" r="7.96"/>
      <circle class="cls-20" cx="97.29" cy="61.71" r="7.96"/>
      <circle class="cls-21" cx="87.34" cy="77.63" r="7.96"/>
      <circle class="cls-19" cx="81.37" cy="96.53" r="7.96"/>
      <circle class="cls-22" cx="79.38" cy="115.44" r="7.96"/>
      <circle class="cls-28" cx="81.37" cy="135.33" r="7.96"/>
    </g>
  </g>
</svg>