<?xml version="1.0" encoding="UTF-8"?>
<svg id="Layer_2" data-name="Layer 2" xmlns="http://www.w3.org/2000/svg" xmlns:xlink="http://www.w3.org/1999/xlink" viewBox="0 0 259.21 147.94">
  <defs>
    <style>
      .cls-1 {
        fill: url(#linear-gradient);
      }

      .cls-2 {
        fill: #fff;
      }

      .cls-3 {
        fill: url(#linear-gradient-2);
      }
    </style>
    <linearGradient id="linear-gradient" x1="-3.8" y1="143.66" x2="131.71" y2="8.14" gradientUnits="userSpaceOnUse">
      <stop offset="0" stop-color="#57ba62"/>
      <stop offset=".51" stop-color="#f1e31b"/>
      <stop offset="1" stop-color="#f1bac4"/>
    </linearGradient>
    <linearGradient id="linear-gradient-2" x1="162.35" y1="107.66" x2="209.62" y2="60.39" xlink:href="#linear-gradient"/>
  </defs>
  <g id="Layer_1-2" data-name="Layer 1">
    <g>
      <polygon points="153.84 25.27 65.71 0 63.71 6 150.09 31.5 153.84 25.27"/>
      <path class="cls-1" d="m145.14,36.35c-2.48-1.45-4.33-3.88-5.07-6.65-.13-.47-.24-.95-.36-1.47-.53-2.3-1.13-4.88-3.12-5.63,1.71-.4,3.21-2.06,3.71-3.56.41-1.22.18-2.27-.64-2.94-8.99-7.35-19.74-12.57-31.07-15.1-1.4-.31-2.89-.59-4.32-.26-1.48.34-2.74,1.3-3.86,2.14l-19.1,14.48c-1.42,1.07-3.02,2.29-3.99,3.95-.66,1.12-1,2.39-1.33,3.61l-6.17,22.92c-.68,2.53-1.39,5.15-2.74,7.45-1.58,2.69-4,4.8-5.93,6.34-4.35,3.46-9.2,6.36-13.9,9.16-.96.03-2.58,1.22-3.88,2.17-.53.39-.99.73-1.34.93-2.71,1.61-5.27,3.14-8.12,4.34-1.76.74-3.42,1.85-5.03,2.91-1,.67-2.04,1.36-3.09,1.95-6.13,3.45-12.54,6.1-18.55,8.44-.66.26-1.4.55-1.91,1.12-.55.62-.73,1.47-.88,2.15C.6,112.21-.76,130.04.4,147.82h0c0,.07.06.12.12.12h0c.06,0,.11-.06.12-.12.22-.45,5.06-2.62,7.12-3.55.86-.39,1.48-.66,1.7-.78,3.06-1.58,6.14-3.21,9.14-4.86,6.06-3.32,11.02-6.49,15.63-9.96,9.94-7.5,18.24-17.22,25.57-25.8l1.23-1.44c3.95-4.63,8.03-9.41,12.28-13.9,3.77-3.98,7.79-7.86,11.67-11.61,6.12-5.91,12.44-12.02,17.97-18.68.27-.32.53-.64.8-.96,1.94-2.36,3.95-4.8,6.48-6.55,2.78-1.92,6.2-2.97,8.94-3.81,5.85-1.8,11.8-3.51,17.67-5.1.05-.01.09-.06.09-.11s-.03-.1-.08-.12c-6.12-2.38-12.78-3.13-19.28-2.19,1.42-1.67,2.31-3.77,2.53-5.96l9.81,4.55c3.67,1.7,7.25,3.16,10.78,2.3,1.72-.42,3.3-1.39,4.46-2.75.02-.03.03-.07.03-.1,0-.04-.03-.07-.06-.09Z"/>
      <path class="cls-2" d="m145.07,33.85s-2.37-5.85-.37-6.85,75-12,75-12c0,0,3,1,2,5l-76.63,13.85Z"/>
      <path d="m219.87,14.53c-.08-.02-.15-.03-.23-.02-7.48,1.13-73.14,11.04-75.15,12.05-1.19.59-1.22,2.3-.93,3.95h-3.35c-.38,0-.73.21-.89.55l-3,6c-.25.49-.05,1.09.45,1.34.14.07.3.11.45.11.37,0,.72-.2.9-.55l2.72-5.45h3.24c.22.7.44,1.27.55,1.54.08.19.26.31.46.31.03,0,.06,0,.09,0l76.63-13.85c.19-.04.35-.18.4-.37,1.1-4.4-2.29-5.58-2.33-5.6Zm1.43,5.04l-73.83,13.35c.3-.73.4-1.72.21-2.78-.25-1.38-.91-2.48-1.66-2.95,7.84-1.64,54.75-8.82,73.64-11.66.46.2,2.23,1.18,1.64,4.05Z"/>
      <path d="m258.22,12.5s-.01,0-.02,0c-.02,0-.04,0-.07,0-.05,0-.09,0-.14.02l-159.98,30c-.24.04-.45.17-.6.36L16.42,144.88c-.26.33-.29.8-.06,1.16.19.29.51.47.85.47.07,0,.15,0,.22-.03l135-31c.18-.04.34-.13.47-.25L258.87,14.25c.21-.18.34-.45.34-.75,0-.55-.44-.99-.99-1Z"/>
      <path class="cls-3" d="m215.96,68.35c.07-.2.16-.46.13-.72-.04-.32-.24-.58-.46-.84-1.77-2.07-3.66-4.08-5.6-5.99l-8.82,7.71-1.02.71c-2.21.33-4.47.6-6.67.86-7.2.86-14.65,1.75-21.31,4.8-1.85.85-4.05,2.32-3.97,4.52.01.31.07.61.12.91.08.41.15.81.11,1.2h-.22c-4.79,0-9.51.83-14.02,2.47-1,.36-2.14.82-2.97,1.67-.72.73-1.26,1.95-.89,3.06-1.17.15-2.23,1.04-2.56,2.18-.35,1.19.13,2.58,1.12,3.32,1.14.84,2.63.79,4.18.65l2.56-.22c.44-.04.9-.08,1.32.04.51.14.94.51,1.36.86l.07.06c1.44,1.22,3.21,2.09,4.91,2.93.78.38,1.59.78,2.34,1.2l11.69,6.54c1.26.7,2.68,1.5,4.22,1.71.3.04.61.06.92.06,1.2,0,2.4-.28,3.48-.53l8.59-2c2.1-.49,4.09-1.06,5.21-2.67.28-.4.49-.86.7-1.29.3-.66.59-1.27,1.09-1.74.49-.46,1.12-.7,1.78-.95.36-.14.73-.28,1.08-.46,2.33-1.21,3.37-4.34,2.23-6.7l-.08-.16c-.14-.28-.29-.58-.27-.87.03-.5.5-.87.96-1.17.21-.13.42-.27.62-.4,1.26-.81,2.56-1.64,3.46-2.86,1.01-1.38,1.41-3.59.15-4.97-.14-.15-.3-.3-.45-.44-.48-.44-.93-.86-.85-1.42.04-.26.21-.5.38-.73,2.27-3.17,4.08-6.65,5.37-10.33Z"/>
    </g>
  </g>
</svg>