<?xml version="1.0" encoding="UTF-8"?>
<svg width="457px" height="42px" viewBox="0 0 457 42" version="1.1" xmlns="http://www.w3.org/2000/svg" xmlns:xlink="http://www.w3.org/1999/xlink">
    <title>signature</title>
    <g id="Page-1" stroke="none" stroke-width="1" fill="none" fill-rule="evenodd">
        <g id="Artboard" transform="translate(-900.000000, -867.000000)" fill="#F1E31B">
            <g id="Group-38" transform="translate(898.000000, 286.000000)">
                <g id="signature" transform="translate(2.374600, 581.678600)">
                    <path d="M21.51,29.419 C21.51,28.033 21.02,26.953 20.039,26.18 C19.059,25.406 17.336,24.606 14.871,23.777 C12.406,22.95 10.391,22.149 8.825,21.376 C3.734,18.875 1.188,15.439 1.188,11.065 C1.188,8.889 1.822,6.968 3.09,5.304 C4.359,3.64 6.154,2.344 8.475,1.417 C10.796,0.491 13.405,0.027 16.301,0.027 C19.126,0.027 21.658,0.531 23.899,1.539 C26.139,2.547 27.88,3.982 29.121,5.844 C30.363,7.706 30.984,9.834 30.984,12.227 L21.537,12.227 C21.537,10.625 21.047,9.384 20.067,8.502 C19.085,7.62 17.759,7.18 16.085,7.18 C14.394,7.18 13.058,7.553 12.077,8.3 C11.097,9.046 10.607,9.995 10.607,11.147 C10.607,12.154 11.147,13.067 12.226,13.886 C13.306,14.705 15.203,15.551 17.921,16.423 C20.637,17.296 22.868,18.236 24.614,19.243 C28.861,21.69 30.984,25.065 30.984,29.364 C30.984,32.802 29.688,35.5 27.097,37.461 C24.506,39.423 20.952,40.403 16.437,40.403 C13.251,40.403 10.368,39.832 7.786,38.69 C5.204,37.547 3.261,35.981 1.956,33.993 C0.652,32.005 0,29.716 0,27.124 L9.5,27.124 C9.5,29.23 10.044,30.781 11.133,31.78 C12.222,32.778 13.989,33.278 16.437,33.278 C18.002,33.278 19.239,32.94 20.148,32.266 C21.056,31.591 21.51,30.643 21.51,29.419" id="Fill-9"></path>
                    <path d="M41.051,31.0382 C42.49,31.0382 43.687,31.4662 44.641,32.3192 C45.594,33.1752 46.071,34.2672 46.071,35.5992 C46.071,36.9312 45.594,38.0232 44.641,38.8782 C43.687,39.7332 42.49,40.1602 41.051,40.1602 C39.594,40.1602 38.393,39.7282 37.447,38.8642 C36.503,38.0012 36.031,36.9132 36.031,35.5992 C36.031,34.2862 36.503,33.1972 37.447,32.3332 C38.393,31.4702 39.594,31.0382 41.051,31.0382" id="Fill-11"></path>
                    <path d="M68.2014,0.5675 L77.6474,0.5675 L77.6474,27.5295 C77.6474,30.0305 77.0674,32.2615 75.9074,34.2225 C74.7464,36.1835 73.1274,37.7045 71.0494,38.7845 C68.9714,39.8635 66.6544,40.4035 64.0994,40.4035 C59.8164,40.4035 56.4884,39.3235 54.1134,37.1645 C51.7384,35.0055 50.5514,31.9465 50.5514,27.9885 L60.0514,27.9885 C60.0514,29.7875 60.3614,31.0915 60.9824,31.9015 C61.6024,32.7115 62.6414,33.1165 64.0994,33.1165 C65.4124,33.1165 66.4254,32.6265 67.1364,31.6455 C67.8464,30.6655 68.2014,29.2935 68.2014,27.5295 L68.2014,0.5675 Z" id="Fill-13"></path>
                    <path d="M88.8215,31.0382 C90.2605,31.0382 91.4575,31.4662 92.4115,32.3192 C93.3645,33.1752 93.8415,34.2672 93.8415,35.5992 C93.8415,36.9312 93.3645,38.0232 92.4115,38.8782 C91.4575,39.7332 90.2605,40.1602 88.8215,40.1602 C87.3645,40.1602 86.1635,39.7282 85.2175,38.8642 C84.2735,38.0012 83.8015,36.9132 83.8015,35.5992 C83.8015,34.2862 84.2735,33.1972 85.2175,32.3332 C86.1635,31.4702 87.3645,31.0382 88.8215,31.0382" id="Fill-16"></path>
                    <path d="M123.5568,23.1573 L123.5568,32.5763 L129.7638,32.5763 C131.4728,32.5763 132.7858,32.1843 133.7038,31.4023 C134.6218,30.6193 135.0808,29.5173 135.0808,28.0953 C135.0808,24.8213 133.4528,23.1753 130.1958,23.1573 L123.5568,23.1573 Z M123.5568,16.9493 L128.4948,16.9493 C130.5648,16.9313 132.0398,16.5533 132.9218,15.8123 C133.8028,15.0733 134.2448,13.9813 134.2448,12.5373 C134.2448,10.8773 133.7668,9.6813 132.8138,8.9503 C131.8598,8.2193 130.3218,7.8543 128.1988,7.8543 L123.5568,7.8543 L123.5568,16.9493 Z M114.0828,39.8633 L114.0828,0.5673 L128.1988,0.5673 C133.2538,0.5673 137.1008,1.4943 139.7368,3.3463 C142.3718,5.2003 143.6908,7.8903 143.6908,11.4173 C143.6908,13.4503 143.2218,15.1863 142.2868,16.6263 C141.3508,18.0653 139.9748,19.1273 138.1578,19.8103 C140.2088,20.3503 141.7838,21.3583 142.8808,22.8333 C143.9778,24.3083 144.5268,26.1083 144.5268,28.2303 C144.5268,32.0823 143.3078,34.9733 140.8698,36.9083 C138.4318,38.8433 134.8198,39.8273 130.0338,39.8633 L114.0828,39.8633 Z" id="Fill-18"></path>
                    <path d="M180.5568,0.5675 L180.5568,26.2885 C180.5568,29.2025 179.9368,31.7255 178.6948,33.8585 C177.4528,35.9905 175.6718,37.6145 173.3508,38.7295 C171.0308,39.8455 168.2858,40.4035 165.1188,40.4035 C160.3328,40.4035 156.5638,39.1615 153.8108,36.6785 C151.0578,34.1955 149.6548,30.7955 149.6008,26.4765 L149.6008,0.5675 L159.1278,0.5675 L159.1278,26.6665 C159.2358,30.9655 161.2328,33.1165 165.1188,33.1165 C167.0798,33.1165 168.5648,32.5765 169.5728,31.4975 C170.5798,30.4175 171.0838,28.6635 171.0838,26.2335 L171.0838,0.5675 L180.5568,0.5675 Z" id="Fill-20"></path>
                    <path d="M195.9416,18.6768 L201.9326,18.6768 C203.7316,18.6768 205.0866,18.2038 205.9946,17.2568 C206.9036,16.3098 207.3576,14.9888 207.3576,13.2918 C207.3576,11.5978 206.8986,10.2668 205.9816,9.3018 C205.0636,8.3368 203.7136,7.8548 201.9326,7.8548 L195.9416,7.8548 L195.9416,18.6768 Z M201.0696,25.9638 L195.9416,25.9638 L195.9416,39.8638 L186.4676,39.8638 L186.4676,0.5678 L201.9326,0.5678 C206.5926,0.5678 210.2366,1.6008 212.8636,3.6668 C215.4906,5.7348 216.8036,8.6558 216.8036,12.4298 C216.8036,15.1618 216.2506,17.4268 215.1436,19.2238 C214.0376,21.0218 212.3056,22.4778 209.9486,23.5918 L218.1536,39.4578 L218.1536,39.8638 L208.0046,39.8638 L201.0696,25.9638 Z" id="Fill-23"></path>
                    <polygon id="Fill-25" points="252.0246 7.8809 240.2306 7.8809 240.2306 39.8629 230.7566 39.8629 230.7566 7.8809 219.1786 7.8809 219.1786 0.5679 252.0246 0.5679"></polygon>
                    <path d="M277.6379,7.8809 L277.6379,32.5759 L280.9299,32.5759 C283.6469,32.5759 285.7349,31.6099 287.1919,29.6749 C288.6489,27.7409 289.3779,24.8659 289.3779,21.0519 L289.3779,19.3519 C289.3779,15.5559 288.6489,12.6939 287.1919,10.7689 C285.7349,8.8439 283.6109,7.8809 280.8229,7.8809 L277.6379,7.8809 Z M268.1639,39.8629 L268.1639,0.5679 L280.8229,0.5679 C284.2939,0.5679 287.4159,1.3549 290.1879,2.9289 C292.9579,4.5029 295.1219,6.7259 296.6779,9.5949 C298.2349,12.4649 299.0219,15.6809 299.0399,19.2429 L299.0399,21.0519 C299.0399,24.6509 298.2799,27.8759 296.7589,30.7279 C295.2389,33.5789 293.0979,35.8109 290.3359,37.4209 C287.5739,39.0309 284.4919,39.8459 281.0919,39.8629 L268.1639,39.8629 Z" id="Fill-27"></path>
                    <polygon id="Fill-29" points="328.2687 23.1837 313.3717 23.1837 313.3717 32.5767 330.9677 32.5767 330.9677 39.8637 303.8977 39.8637 303.8977 0.5677 331.0217 0.5677 331.0217 7.8807 313.3717 7.8807 313.3717 16.1667 328.2687 16.1667"></polygon>
                    <path d="M355.0959,29.419 C355.0959,28.033 354.6059,26.953 353.6249,26.18 C352.6449,25.406 350.9219,24.606 348.4569,23.777 C345.9919,22.95 343.9769,22.149 342.4109,21.376 C337.3199,18.875 334.7739,15.439 334.7739,11.065 C334.7739,8.889 335.4079,6.968 336.6759,5.304 C337.9449,3.64 339.7399,2.344 342.0609,1.417 C344.3819,0.491 346.9909,0.027 349.8869,0.027 C352.7119,0.027 355.2439,0.531 357.4849,1.539 C359.7249,2.547 361.4659,3.982 362.7069,5.844 C363.9489,7.706 364.5699,9.834 364.5699,12.227 L355.1229,12.227 C355.1229,10.625 354.6329,9.384 353.6529,8.502 C352.6709,7.62 351.3449,7.18 349.6709,7.18 C347.9799,7.18 346.6439,7.553 345.6629,8.3 C344.6829,9.046 344.1929,9.995 344.1929,11.147 C344.1929,12.154 344.7329,13.067 345.8119,13.886 C346.8919,14.705 348.7889,15.551 351.5069,16.423 C354.2229,17.296 356.4539,18.236 358.1999,19.243 C362.4469,21.69 364.5699,25.065 364.5699,29.364 C364.5699,32.802 363.2739,35.5 360.6829,37.461 C358.0919,39.423 354.5379,40.403 350.0229,40.403 C346.8369,40.403 343.9539,39.832 341.3719,38.69 C338.7899,37.547 336.8469,35.981 335.5419,33.993 C334.2379,32.005 333.5859,29.716 333.5859,27.124 L343.0859,27.124 C343.0859,29.23 343.6299,30.781 344.7189,31.78 C345.8079,32.778 347.5749,33.278 350.0229,33.278 C351.5879,33.278 352.8249,32.94 353.7339,32.266 C354.6419,31.591 355.0959,30.643 355.0959,29.419" id="Fill-31"></path>
                    <polygon id="Fill-33" points="370.0754 39.8634 379.5214 39.8634 379.5214 0.5674 370.0754 0.5674"></polygon>
                    <path d="M418.2775,35.005 C416.8205,36.625 414.6885,37.93 411.8815,38.919 C409.0745,39.908 405.9975,40.403 402.6505,40.403 C397.5055,40.403 393.3935,38.829 390.3165,35.68 C387.2405,32.531 385.5935,28.151 385.3785,22.536 L385.3505,19.136 C385.3505,15.268 386.0345,11.889 387.4025,9.001 C388.7695,6.113 390.7255,3.892 393.2725,2.335 C395.8185,0.778 398.7645,0 402.1115,0 C407.0055,0 410.8055,1.12 413.5135,3.36 C416.2215,5.601 417.8005,8.943 418.2515,13.387 L409.1285,13.387 C408.8045,11.193 408.1025,9.627 407.0235,8.691 C405.9435,7.756 404.4145,7.287 402.4345,7.287 C400.0595,7.287 398.2245,8.295 396.9285,10.311 C395.6335,12.325 394.9765,15.204 394.9595,18.946 L394.9595,21.321 C394.9595,25.244 395.6295,28.191 396.9695,30.161 C398.3095,32.131 400.4205,33.116 403.2985,33.116 C405.7635,33.116 407.5985,32.567 408.8045,31.47 L408.8045,25.37 L402.2185,25.37 L402.2185,18.865 L418.2775,18.865 L418.2775,35.005 Z" id="Fill-35"></path>
                    <polygon id="Fill-36" points="456.6027 39.8634 447.1827 39.8634 433.2567 15.4114 433.2567 39.8634 423.7837 39.8634 423.7837 0.5674 433.2567 0.5674 447.1567 25.0194 447.1567 0.5674 456.6027 0.5674"></polygon>
                </g>
            </g>
        </g>
    </g>
</svg>